<?xml version="1.0" encoding="UTF-8"?>
<svg id="Layer_1" xmlns="http://www.w3.org/2000/svg" version="1.1" viewBox="0 0 512 512">
  <!-- Generator: Adobe Illustrator 29.5.1, SVG Export Plug-In . SVG Version: 2.1.0 Build 141)  -->
  <defs>
    <style>
      .st0 {
        fill: #15803a;
      }
    </style>
  </defs>
  <path class="st0" d="M465.1,270.2c-1-3.6,4.4-9.7,3-14.2-.6-2-14.2-8.8-12.8-15.2-5.2-1.7-10.9,1.7-15.2,1.7s-11-4.8-16.9-1.8c-.5-1.9,2.9-2.5,4.3-2.9,5.2-1.3,16.4-1.3,19.8-4.3,2.4-2.2,1.4-3.9-.3-6.2-1.8-2.4-2.9-1.9-4.7-3.4,3.9-5.3,5,0,7.5.6,8,2.3,16.6-2.8,16.6-11-2.2.1-5.7-2.3-6.3-4.3-.5-2.2,1.3-3.7.8-5.5-.3-1.3-3-6.3-4.1-7.2-4.1-3.6-8.5.5-13.6-.9-4.6-1.4-7.9-13.1-17-6.2-.9-2.2,1.4-4.7,1.3-5.7,0-1.4-5.6-5.1-7.2-5.5-3-.5-4.3,1.4-4.6,1.4-1.1,0,.9-3.3.9-5.6s-.8-3.7-1.8-5.6c5.2.5,9.8,2.4,15.4,1.7.9,0,6.5-3.2,6.9-3.6,1.9-1.8,4.1-8.6,5.3-11.6,1.1-2.7,4.3-3.3,2.8-8.1-1.5-5.1-8.8-3.4-10.4-5.7-1.9-2.8,1.1-10.9-5-12.8-3.6-1.1-6.2,1.8-7.7,1.4-2.2-.5-2.5-4.6-4.1-5.7-4.6-3.3-9.8,3-12.1,2.5-1.9-.5-1.7-5.5-6.7-6.2-3.8-.5-11.9,3.8-13.5-1-2.4-8.1,10-2.8,11.2-4.1.4-.5,0-2.9,1.7-3.9,1.9-1.4,6.9-.9,8-5,2.4-8.4-.5-13.8-9.4-11.8-1-1,3.4-6,.9-9.8-3.6-5.2-9.3-.6-12.8-1.7-2-.6-4.2-7.2-7.2-8.8-2.9-1.5-6.5-.6-9.7-.8,0,3.6-1.1,7.4-4.2,9.5l-9.3-3-15.5,11.2c.8-2.4-2-3.3-.9-4.8,1.4-2,4.6-1.7,6.9-2.8,3.8-2.2,7.1-5.7,11.6-7,2.5-6.6,2.2-12.3-5.7-14.1-3.3-.8-5.7,3.7-8.5-1-.5-1.9,5-4.8,3.2-11.2-.8-2.5-13.2-6.6-16.6-5.6-2.9.9-3.6,6.3-8.3-.3-.8-1-.6-2.7-.9-3-.4-.4-5.6-.3-6.9,0-1,.3-14.3,10.2-14.7,11-1.5,3-.3,9-.8,9.7l-6.3.9c6.3-5.3-7.9-14.3-7.9-16s5.5-5.8,2.3-10.5c-1.8-2.7-5.3-1-7.9-1.8-1.9-.5-5.3-6-8.3-6s-2.7,1.9-3.9,2.2c-1.4.4-2.5-.9-3.8-.6-5.1.8-7.2,7.7-8.4,7.7l-8.1-8c-3.9-.5-7.6,5.7-9.7,6.2-4.6,1.3-10.2-5.5-15.9-4.8-3.8.5-4.2,2.9-4.1,6.5-11.3-.8-14.7-.4-12.6,11.8.6,3.8,2.3,4.6,5.7,5.6,2.8.9,4.3-.9,3.7,3.6-2.8-.9-8.1,0-10.2-.4-8.3-1.5-18.4-10.4-20.4,3.6-3.9-.8-7.6-2.7-11.9-1.4-1.1.4-8.5,7.7-8.9,8.8-2.5,8.6,8.8,15,9,17.5.3,3-.3,7.2.8,11,.6,2.3,5.6,7.5.5,9.1-3.6,1.1-7-13-10.4-15.4-3.3-2.4-6.7.4-9,.4s-3.8-2.4-6.3-2.8c-2.4-.4-8.8-.4-10.5.8-2.4,1.8-.9,5.2-2.3,7.4-.3.4-6.3,4.4-6.7,4.6-2.4.6-3.9-1.4-6-1.3-2.3.1-5.7,2.3-9,1.4-1.1,4.1-4.6,7.5-5,11.9-.4,3.7,1.3,5.6,1.7,8.8-8.3-1.4-19.9,9.7-8,13,.5.5-4.7,11,.9,12.7,7.6,2.2,10.4-3.6,16.3-4.4,2-.4,5.5,2.3,7,3.8-2.2,1.7-6.3,1.7-8.8,2.4-1.7.5-2.9.5-4.1,2.4-1,3.4,5.1,5,6.1,6,.9.9,5.8,10.2,5.1,10.9-5-.5-6.5-5.7-12.1-6.5-6.7-.9-9.7,3.3-12.8,3.3s-6.2-2.9-11.2-1.5l-5.1,7.7h-13.6c-.6,6.7,3.3,11.3,0,17.8-.8.8-8.4-2-10.9,4.3-.5,1.1-2,8.4-1.8,9.3,1.1,4.2,9.1,3.9,11.2,8.3,1.4,3-2.9,2.3-4.1,3.9-5.3,7.6,5.5,9,11.3,8.1,4.4-.6,10-7.5,11.9.8-5.3,4.3-1,3.8-.1,6.7.5,1.8,0,3.7.3,5.5-3,.5-4.8-2.4-7.5-2.9-7.6-1.7-13.8,1.7-11.6,10,.4,1.4,5.2,4.4.6,5.8-3.6,1-6.5-2-9.7-1.7-1.1,4.7-2.4,2.5-4.4,3.6s-3.3,3-5.8,3c-1,6,4.1,7.7-1.8,11.9-4.6,3.3-1.7,1.3-3.9,5.7-1.8,3.4-5,5.5-4.1,9.7,3,1,7,1.3,9.7,2.3s5,4.2,7.1,4.2,5.5-3.9,8.9-3.3c-3.7,4.2-10.8,7.6-7.2,14.5s12.2,4.4,18.4,4.8c.8,5.6,2.2,6.9,7.6,7.7,7,1,6.6-2.9,10.9-6.2,4.3-3.2,9.3-5.3,13-9.5,3.3-.8,5,.5,5.6,3.8,1.1,6.2-1.9,3-5.5,4.3-1.7.5-16.3,7.7-17.1,8.6-2.2,2-4.2,7.6-7.4,8.6-2.5.8-9.4-.5-10.2.3-.3.3-.1,1.9-.9,3-2.2,3-10,11.3-8.1,14.6,2.8,4.4,9.1,2.8,13.7,4.8-2.9,7.6,5,9,11.3,6.3-1.4,14.6,2.5,9.1,10.3,11.4,2.3.6,3.2,5,7.5,2.3,5.2-3.3,5.2-8,4.8-13.7l8.8,3.2c4.3-5.1.8-9.7,9.7-11.2,2-.4,6.6-1.1,5.6,2.4-1.8,2.4-10.2,4.8-7.2,8.9.3.4,7.7,6.2,8.3,6.3,2.5.8,4.3-1.5,6.2-1.7,2.7,0,5.8,5.5,10.3,3.2l.9-3.2,15.2,1.7c-1.1-7.1,4.1-12.7,10.7-14.3,2.5-.6,4.1,1.3,6.2,1.4,3.2.3,6.2-.4,9.4.3,2.7.5,22.7,16,26,19,3.8,3.4,10.2,12.4,11.7,17.3,2.8,8.6,3.2,36.8,1.9,46.2-2.2,16.9-18.3,25.8-33,29.7-17.3,4.7-32.3,5.7-49.8,8.1-2.5.4-12.1,2.3-12.1,4.1,2.3,3.7,5.5,1.8,8.8,2.4,2.2.4,3.8,1.5,6.3,1.7,13.7,1,27.6-1,41-1.7-.4,3.8-8.1,1.1-6.5,6.5,13.3,1.1,26.2-1.3,37.7-8l-5.6,9.7c7.1,1.5,13.7-3.9,20.1-4.8,14.2-1.9,27.8,2.3,41.8,3.2,1.7,0,3.6,1.9,4.8,1.7,6.2-1.4-3.4-5.8-4.1-8,11.2-.4,21.6,4.8,33,3.3,2.8-.4,3.6-2.9,6.3-3.3,8.6-1.3,19.9,1,29,0,2.2-.3,13.8-3.2,10.4-6.3-9.9.4-19.8-1.4-29.5-3.6-4.2-.9-9.1-3.9-13.2-4.4-13.8-1.8-16.4,1.8-30.3-6.7-6.3-3.8-12.2-9.3-13.6-16.9-2.5-13.2-5-36.2-3.6-49.5,2.7-23.6,24.3-37.2,41.6-49.9,1.9-1.4,3.2-3.8,4.8-4.8,3.6-2.2,14.5-4.2,12.8,1.7-.5,1.9-3.8,2-4.6,2.7-.6.5-.8,2.4-1.8,3.8-2.7,3.2-5.2,4.4-5,9.7.6,10.5,9.7,5.8,15.1,7.4,2.5.8,6,7.1,8.4,7.7,5,1.4,8.4-6.3,14.1-4.6s2,3.2,6.6,3.2,12.6-3.8,11.8-8.6l-11-22c.8-.9,8.4,3.9,8.9,4.7,1.5,2.3.4,5.6.8,8l7.9,1.8c-1.5,8,4.6,9.1,11.3,9.5l2.4-4.8c3.6,3.8,3.4,8,9.7,8.1,7.2,0,4.1-4.4,8-8.1,1.7,1.1,5,2.7,6.7,2.9,3.8.6,12.6-3.6,11.6-8.4-.3-1.4-10-14.2-11-14.7-1.3-.6-5.3,2.7-6.5-2.3,6.6,1.3,5.2-3.2,6.5-4.8,2.7-3.6,3.2,2.7,3.4,2.9,4.7,5.1,22.1-1.9,22-8.5,0-4.1-4.7-4.8-5.8-6-1.1-1.1-4.2-7.9-5.5-9-.8-.8-3.7-.8-4.6-2.7,2.2-3.7,5.6-1.8,8.6-2.7,1.5-.5,2.4-2.7,3.6-2.9,1.8-.4,7.7,4.2,11,4.2s6.5-1.4,7.2-1.8c4.3-2.5-.9-10.5-3.2-13-2-2.2-5-1.5-4.8-3.9,5.8-1.8,8.1,4.7,13.5,3,2.3-.6,6.5-7,9-8.6l-11.2-6.5h1.4ZM109,290.4c-1,0-1-1.7,0-1.7s1,1.7,0,1.7ZM137.2,330.5h-3.2v-1.7h3.2v1.7ZM162.9,298.4c-.6.8-4.2-2.8-3.2-4.8.6-.8,4.2,2.8,3.2,4.8ZM163.8,189.2c-1,0-1-1.7,0-1.7s1,1.7,0,1.7ZM175.8,192.4c2-1,5.6,2.5,4.8,3.2-2,1-5.6-2.5-4.8-3.2ZM180.5,289.6l-.8.8-2.4-2.4.8-.8,2.4,2.4ZM175.8,314.5c2-1,5.6,2.5,4.8,3.2-2,1-5.6-2.5-4.8-3.2ZM183.8,338.5c-3-1.5-14.3-2-12.8-7.2,1.9-6.9,15.2,4.8,12.8,7.2ZM188.7,137c-.6,2.3,1.1,2.8-3.2,2.4l-1.7-8,6.5-1.7c.5,2.7-.9,4.8-1.7,7.2h0ZM231.2,472c-1,0-1-1.7,0-1.7s1,1.7,0,1.7ZM241.6,131.3l-4.8-4.8c3.2-.5,5.3,1.9,4.8,4.8ZM238.4,231l1.7,8-6.5-7.2,4.8-.8ZM226.4,121.7c1,0,1,1.7,0,1.7s-1-1.7,0-1.7ZM223.2,161.9c1.7,1.5,2.9,2.4,2.4,4.8h-1.7l-1.7-4.1.8-.8h.1ZM220.8,285.6c-5.8,0-5.8-4.4-6.7-8.5-.5-2.7-2.7-3.3,1.1-6,3.4,3.9,6.2,9.1,5.6,14.5h0ZM209.5,243.8c3.2,1.4,4.3,5.5,6.5,8-3.9,1-2.5-1-3.4-2.2-1.5-1.9-3.4-3.3-2.9-5.8h-.1ZM206.3,320.9v3.2h-.8l-2.4-3.2h3.2ZM199.1,237.3c1,0,1,1.7,0,1.7s-1-1.7,0-1.7ZM194.2,258.3c4.6,3.8,6.7,6.5,5.6,12.8l-4.1-4.7-1.5-8.1h0ZM220.8,351.5c-7.9-6.3-17.5-10.7-22.5-20.1l6.5,1.5c3.6,1.1,18.4,15.7,16,18.5h0ZM236.8,345c-1.5,1.7-7.7-5-8.8-6.5-2.8-3.9-9.9-18.9-10.5-23.2-.4-2.8,2.5-3.4,4.3-3.8,3.8-.6,8.4,0,11,2.9.5.5,3.9,6.9,3.9,7.2v23.2h0ZM241.6,279.1c-5.1,2.7-13.1-10.8-11.3-12.8,4.8-1.3,12.1,12.1,11.3,12.8ZM241.6,168.3c-.3-3.4-.6-7,3.2-8,.3,3.4.6,7-3.2,8ZM256.1,239c-1-2,2.5-5.6,3.2-4.8,1,2-2.5,5.6-3.2,4.8ZM278.6,279.1c.9.8-7,10.8-8,9.7-2.2-3.3,6.1-11.4,8-9.7ZM269,349.8c.8-9.5-3.9-26.8,9.7-27.3-2,3.7-3.9,6.7-3.2,11.3l8,2.4-14.5,13.7h0ZM289.9,189.2l3.2,3.2h-3.2v-3.2ZM295.4,283.9c-2.5,1.1-3.8,2.4-7.2,1.7.3-2.7,10.3-7.2,11.3-6.5,2.4,2-2.8,4.3-4.1,4.8ZM301.9,328.9l-.8-.8,5.6-4.1.8.8c-1.4,2.3-4.1,2-5.6,4.1ZM317.2,171.4c-1-2,2.5-5.6,3.2-4.8,1,2-2.5,5.6-3.2,4.8ZM324.4,277.6c-2.5-1.8-2.8-3.4-2.4-6.5l4.8,1.7c.5,2.4-.8,3.3-2.4,4.8h0ZM325.4,248.1c-.5.9-.9,4.7-3.4,2.2s3.4-7.5,6.5-6.5c.5.5-2.3,3-2.9,4.3h-.1ZM370.1,144.9c2.5-1.5,1.8-3.8,4.8,0l-9.7,4.1c.4-2.4,3-2.9,4.8-4.1ZM366.9,208.5v6.5h-3.2l-1.7-6.5h4.8ZM357.3,314.5c0-2.7,3.7-2.5,4.6-3.6.5-.5,0-1.5.3-1.8,1.5-1.3,3-2.2,4.8-2.7,2.2,2.2-7.2,8.5-9.7,8ZM380.3,315.7c-2.8,1-5.5,2.3-8.5,2,2-4.3,8.8-5,12.8-4.8.4,2.2-2.7,2.3-4.4,2.8h.1ZM416.8,287.1h-3.2v-4.8h3.2v4.8ZM423.2,293.6l6.5,1.7v1.7c-3,.4-5.6,0-6.5-3.2h0Z"/>
</svg>